# xmcd
# Copyright (C) 1995-1998 Ti Kan
#
# Track frame offsets:
#       150
#       22070
#       41970
#       59391
#       76166
#       114984
#       134354
#       158254
#       171666
#       195892
#       216068
#       229743
#       245821
#       253548
#       269448
#       288698
#
# Disc length: 4036 seconds
#
# Revision: 0
# Processed by: cddbd v1.5.2PL0 Copyright (c) Steve Scherf et al.
# Submitted via: CD-Transfer v1.0
#
DISCID=e60fc210
DTITLE=Various Artist - 
DYEAR=2005
DGENRE=
TTITLE0=Duke Ellington   Body And Soul
TTITLE1=Antonio Carlos Jobim   Tereza My Love
TTITLE2=Chet Baker   What'll I Do
TTITLE3=Aretha Franklin   Unforgetttable
TTITLE4=Russel Malone   Moonlight Serenade
TTITLE5=The Dave Brubeck Quartet   Somewhere
TTITLE6=Ellis Marsalis   Orchid Blue
TTITLE7=R. Brown, H. Ellis    I Know You Oh so Well
TTITLE8=Ellis Marsalis   I Can't Give You Anything But Love
TTITLE9=Klazz Brothers   In A Sentimental Mood
TTITLE10=Count Basie   If I Could Be With You One Hour Tonight
TTITLE11=Ted Mcnabb and Company   Spring Is Here
TTITLE12=The Ralph Sharon Trio   I Left My Heart In San Francisco
TTITLE13=Marcus Roberts Trio   I've Got You Under My Skin
TTITLE14=Ben Webster   My Romance
TTITLE15=Billie Holiday   The Man I Love 
EXTD=
EXTT0=
EXTT1=
EXTT2=
EXTT3=
EXTT4=
EXTT5=
EXTT6=
EXTT7=
EXTT8=
EXTT9=
EXTT10=
EXTT11=
EXTT12=
EXTT13=
EXTT14=
EXTT15=
PLAYORDER=
